<svg width="254" height="19" viewBox="0 0 254 19" fill="none" xmlns="http://www.w3.org/2000/svg">
<g filter="url(#filter0_b_240_4)">
<path d="M254 14.0157C254 16.2187 252.219 18.007 250.016 18.0157L4.01575 18.9842C1.80048 18.9929 0 17.1995 0 14.9842V4.98428C0 2.78129 1.78128 0.992987 3.98425 0.984314L249.984 0.01581C252.2 0.00708771 254 1.80049 254 4.01578V14.0157Z" fill="#E8FFED" fill-opacity="0.4"/>
<path d="M253.5 14.0157C253.5 15.9433 251.941 17.5081 250.014 17.5157L4.01378 18.4842C2.07542 18.4918 0.5 16.9226 0.5 14.9842V4.98428C0.5 3.05667 2.05862 1.4919 3.98622 1.48431L249.986 0.515806C251.925 0.508175 253.5 2.0774 253.5 4.01578V14.0157Z" stroke="black" stroke-opacity="0.4"/>
</g>
<path d="M103.047 11.3398V7.3125H103.797V11.3398C103.797 11.7148 103.72 12.0312 103.566 12.2891C103.413 12.5469 103.201 12.7435 102.93 12.8789C102.661 13.0117 102.353 13.0781 102.004 13.0781C101.655 13.0781 101.345 13.0182 101.074 12.8984C100.803 12.7786 100.591 12.5964 100.438 12.3516C100.284 12.1068 100.207 11.7982 100.207 11.4258H100.961C100.961 11.6654 101.005 11.862 101.094 12.0156C101.182 12.1693 101.305 12.2826 101.461 12.3555C101.62 12.4284 101.801 12.4648 102.004 12.4648C102.202 12.4648 102.379 12.4232 102.535 12.3398C102.694 12.2539 102.819 12.1276 102.91 11.9609C103.001 11.7917 103.047 11.5846 103.047 11.3398ZM107.457 12.2773V10.1016C107.457 9.9349 107.423 9.79036 107.355 9.66797C107.29 9.54297 107.191 9.44661 107.059 9.37891C106.926 9.3112 106.762 9.27734 106.566 9.27734C106.384 9.27734 106.224 9.30859 106.086 9.37109C105.951 9.43359 105.844 9.51562 105.766 9.61719C105.69 9.71875 105.652 9.82812 105.652 9.94531H104.93C104.93 9.79427 104.969 9.64453 105.047 9.49609C105.125 9.34766 105.237 9.21354 105.383 9.09375C105.531 8.97135 105.708 8.875 105.914 8.80469C106.122 8.73177 106.354 8.69531 106.609 8.69531C106.917 8.69531 107.188 8.7474 107.422 8.85156C107.659 8.95573 107.844 9.11328 107.977 9.32422C108.112 9.53255 108.18 9.79427 108.18 10.1094V12.0781C108.18 12.2188 108.191 12.3685 108.215 12.5273C108.241 12.6862 108.279 12.8229 108.328 12.9375V13H107.574C107.538 12.9167 107.509 12.806 107.488 12.668C107.467 12.5273 107.457 12.3971 107.457 12.2773ZM107.582 10.4375L107.59 10.9453H106.859C106.654 10.9453 106.47 10.9622 106.309 10.9961C106.147 11.0273 106.012 11.0755 105.902 11.1406C105.793 11.2057 105.71 11.2878 105.652 11.3867C105.595 11.4831 105.566 11.5964 105.566 11.7266C105.566 11.8594 105.596 11.9805 105.656 12.0898C105.716 12.1992 105.806 12.2865 105.926 12.3516C106.048 12.4141 106.198 12.4453 106.375 12.4453C106.596 12.4453 106.792 12.3984 106.961 12.3047C107.13 12.2109 107.264 12.0964 107.363 11.9609C107.465 11.8255 107.52 11.694 107.527 11.5664L107.836 11.9141C107.818 12.0234 107.768 12.1445 107.688 12.2773C107.607 12.4102 107.499 12.5378 107.363 12.6602C107.23 12.7799 107.072 12.8802 106.887 12.9609C106.704 13.0391 106.499 13.0781 106.27 13.0781C105.983 13.0781 105.732 13.0221 105.516 12.9102C105.302 12.7982 105.135 12.6484 105.016 12.4609C104.898 12.2708 104.84 12.0586 104.84 11.8242C104.84 11.5977 104.884 11.3984 104.973 11.2266C105.061 11.0521 105.189 10.9076 105.355 10.793C105.522 10.6758 105.723 10.5872 105.957 10.5273C106.191 10.4674 106.453 10.4375 106.742 10.4375H107.582ZM110.039 9.67578V13H109.316V8.77344H110L110.039 9.67578ZM109.867 10.7266L109.566 10.7148C109.569 10.4258 109.612 10.1589 109.695 9.91406C109.779 9.66667 109.896 9.45182 110.047 9.26953C110.198 9.08724 110.378 8.94661 110.586 8.84766C110.797 8.74609 111.03 8.69531 111.285 8.69531C111.493 8.69531 111.681 8.72396 111.848 8.78125C112.014 8.83594 112.156 8.92448 112.273 9.04688C112.393 9.16927 112.484 9.32812 112.547 9.52344C112.609 9.71615 112.641 9.95182 112.641 10.2305V13H111.914V10.2227C111.914 10.0013 111.882 9.82422 111.816 9.69141C111.751 9.55599 111.656 9.45833 111.531 9.39844C111.406 9.33594 111.253 9.30469 111.07 9.30469C110.891 9.30469 110.727 9.34245 110.578 9.41797C110.432 9.49349 110.306 9.59766 110.199 9.73047C110.095 9.86328 110.013 10.0156 109.953 10.1875C109.896 10.3568 109.867 10.5365 109.867 10.7266ZM119.371 12.4062V13H115.648V12.4805L117.512 10.4062C117.741 10.151 117.918 9.9349 118.043 9.75781C118.171 9.57812 118.259 9.41797 118.309 9.27734C118.361 9.13411 118.387 8.98828 118.387 8.83984C118.387 8.65234 118.348 8.48307 118.27 8.33203C118.194 8.17839 118.082 8.05599 117.934 7.96484C117.785 7.8737 117.605 7.82812 117.395 7.82812C117.142 7.82812 116.931 7.8776 116.762 7.97656C116.595 8.07292 116.47 8.20833 116.387 8.38281C116.303 8.55729 116.262 8.75781 116.262 8.98438H115.539C115.539 8.66406 115.609 8.37109 115.75 8.10547C115.891 7.83984 116.099 7.62891 116.375 7.47266C116.651 7.3138 116.991 7.23438 117.395 7.23438C117.754 7.23438 118.061 7.29818 118.316 7.42578C118.572 7.55078 118.767 7.72786 118.902 7.95703C119.04 8.18359 119.109 8.44922 119.109 8.75391C119.109 8.92057 119.081 9.08984 119.023 9.26172C118.969 9.43099 118.892 9.60026 118.793 9.76953C118.697 9.9388 118.583 10.1055 118.453 10.2695C118.326 10.4336 118.189 10.5951 118.043 10.7539L116.52 12.4062H119.371ZM123.715 9.70312V10.5703C123.715 11.0365 123.673 11.4297 123.59 11.75C123.507 12.0703 123.387 12.3281 123.23 12.5234C123.074 12.7188 122.885 12.8607 122.664 12.9492C122.445 13.0352 122.198 13.0781 121.922 13.0781C121.703 13.0781 121.501 13.0508 121.316 12.9961C121.132 12.9414 120.965 12.8542 120.816 12.7344C120.671 12.612 120.546 12.4531 120.441 12.2578C120.337 12.0625 120.258 11.8255 120.203 11.5469C120.148 11.2682 120.121 10.9427 120.121 10.5703V9.70312C120.121 9.23698 120.163 8.84635 120.246 8.53125C120.332 8.21615 120.453 7.96354 120.609 7.77344C120.766 7.58073 120.953 7.44271 121.172 7.35938C121.393 7.27604 121.641 7.23438 121.914 7.23438C122.135 7.23438 122.339 7.26172 122.523 7.31641C122.711 7.36849 122.878 7.45312 123.023 7.57031C123.169 7.6849 123.293 7.83854 123.395 8.03125C123.499 8.22135 123.578 8.45443 123.633 8.73047C123.688 9.00651 123.715 9.33073 123.715 9.70312ZM122.988 10.6875V9.58203C122.988 9.32682 122.973 9.10286 122.941 8.91016C122.913 8.71484 122.87 8.54818 122.812 8.41016C122.755 8.27214 122.682 8.16016 122.594 8.07422C122.508 7.98828 122.408 7.92578 122.293 7.88672C122.181 7.84505 122.055 7.82422 121.914 7.82422C121.742 7.82422 121.59 7.85677 121.457 7.92188C121.324 7.98438 121.212 8.08464 121.121 8.22266C121.033 8.36068 120.965 8.54167 120.918 8.76562C120.871 8.98958 120.848 9.26172 120.848 9.58203V10.6875C120.848 10.9427 120.862 11.168 120.891 11.3633C120.922 11.5586 120.967 11.7279 121.027 11.8711C121.087 12.0117 121.16 12.1276 121.246 12.2188C121.332 12.3099 121.431 12.3776 121.543 12.4219C121.658 12.4635 121.784 12.4844 121.922 12.4844C122.099 12.4844 122.254 12.4505 122.387 12.3828C122.52 12.3151 122.63 12.2096 122.719 12.0664C122.81 11.9206 122.878 11.7344 122.922 11.5078C122.966 11.2786 122.988 11.0052 122.988 10.6875ZM128.371 12.4062V13H124.648V12.4805L126.512 10.4062C126.741 10.151 126.918 9.9349 127.043 9.75781C127.171 9.57812 127.259 9.41797 127.309 9.27734C127.361 9.13411 127.387 8.98828 127.387 8.83984C127.387 8.65234 127.348 8.48307 127.27 8.33203C127.194 8.17839 127.082 8.05599 126.934 7.96484C126.785 7.8737 126.605 7.82812 126.395 7.82812C126.142 7.82812 125.931 7.8776 125.762 7.97656C125.595 8.07292 125.47 8.20833 125.387 8.38281C125.303 8.55729 125.262 8.75781 125.262 8.98438H124.539C124.539 8.66406 124.609 8.37109 124.75 8.10547C124.891 7.83984 125.099 7.62891 125.375 7.47266C125.651 7.3138 125.991 7.23438 126.395 7.23438C126.754 7.23438 127.061 7.29818 127.316 7.42578C127.572 7.55078 127.767 7.72786 127.902 7.95703C128.04 8.18359 128.109 8.44922 128.109 8.75391C128.109 8.92057 128.081 9.08984 128.023 9.26172C127.969 9.43099 127.892 9.60026 127.793 9.76953C127.697 9.9388 127.583 10.1055 127.453 10.2695C127.326 10.4336 127.189 10.5951 127.043 10.7539L125.52 12.4062H128.371ZM131.52 7.28125V13H130.797V8.18359L129.34 8.71484V8.0625L131.406 7.28125H131.52ZM137.211 10.2852V10.8789H135.305V10.2852H137.211ZM142.109 10.7695H140.59V10.1562H142.109C142.404 10.1562 142.642 10.1094 142.824 10.0156C143.007 9.92188 143.139 9.79167 143.223 9.625C143.309 9.45833 143.352 9.26823 143.352 9.05469C143.352 8.85938 143.309 8.67578 143.223 8.50391C143.139 8.33203 143.007 8.19401 142.824 8.08984C142.642 7.98307 142.404 7.92969 142.109 7.92969H140.766V13H140.012V7.3125H142.109C142.539 7.3125 142.902 7.38672 143.199 7.53516C143.496 7.68359 143.721 7.88932 143.875 8.15234C144.029 8.41276 144.105 8.71094 144.105 9.04688C144.105 9.41146 144.029 9.72266 143.875 9.98047C143.721 10.2383 143.496 10.4349 143.199 10.5703C142.902 10.7031 142.539 10.7695 142.109 10.7695ZM145.672 9.4375V13H144.949V8.77344H145.652L145.672 9.4375ZM146.992 8.75L146.988 9.42188C146.928 9.40885 146.871 9.40104 146.816 9.39844C146.764 9.39323 146.704 9.39062 146.637 9.39062C146.47 9.39062 146.323 9.41667 146.195 9.46875C146.068 9.52083 145.96 9.59375 145.871 9.6875C145.783 9.78125 145.712 9.89323 145.66 10.0234C145.611 10.151 145.578 10.2917 145.562 10.4453L145.359 10.5625C145.359 10.3073 145.384 10.0677 145.434 9.84375C145.486 9.61979 145.565 9.42188 145.672 9.25C145.779 9.07552 145.914 8.9401 146.078 8.84375C146.245 8.74479 146.443 8.69531 146.672 8.69531C146.724 8.69531 146.784 8.70182 146.852 8.71484C146.919 8.72526 146.966 8.73698 146.992 8.75ZM149.336 13.0781C149.042 13.0781 148.775 13.0286 148.535 12.9297C148.298 12.8281 148.094 12.6862 147.922 12.5039C147.753 12.3216 147.622 12.1055 147.531 11.8555C147.44 11.6055 147.395 11.332 147.395 11.0352V10.8711C147.395 10.5273 147.445 10.2214 147.547 9.95312C147.648 9.68229 147.786 9.45312 147.961 9.26562C148.135 9.07812 148.333 8.9362 148.555 8.83984C148.776 8.74349 149.005 8.69531 149.242 8.69531C149.544 8.69531 149.805 8.7474 150.023 8.85156C150.245 8.95573 150.426 9.10156 150.566 9.28906C150.707 9.47396 150.811 9.69271 150.879 9.94531C150.947 10.1953 150.98 10.4688 150.98 10.7656V11.0898H147.824V10.5H150.258V10.4453C150.247 10.2578 150.208 10.0755 150.141 9.89844C150.076 9.72135 149.971 9.57552 149.828 9.46094C149.685 9.34635 149.49 9.28906 149.242 9.28906C149.078 9.28906 148.927 9.32422 148.789 9.39453C148.651 9.46224 148.533 9.5638 148.434 9.69922C148.335 9.83464 148.258 10 148.203 10.1953C148.148 10.3906 148.121 10.6159 148.121 10.8711V11.0352C148.121 11.2357 148.148 11.4245 148.203 11.6016C148.26 11.776 148.342 11.9297 148.449 12.0625C148.559 12.1953 148.69 12.2995 148.844 12.375C149 12.4505 149.177 12.4883 149.375 12.4883C149.63 12.4883 149.846 12.4362 150.023 12.332C150.201 12.2279 150.355 12.0885 150.488 11.9141L150.926 12.2617C150.835 12.3997 150.719 12.5312 150.578 12.6562C150.438 12.7812 150.264 12.8828 150.059 12.9609C149.855 13.0391 149.615 13.0781 149.336 13.0781ZM154.285 11.8789C154.285 11.7747 154.262 11.6784 154.215 11.5898C154.171 11.4987 154.078 11.4167 153.938 11.3438C153.799 11.2682 153.591 11.2031 153.312 11.1484C153.078 11.099 152.866 11.0404 152.676 10.9727C152.488 10.9049 152.328 10.8229 152.195 10.7266C152.065 10.6302 151.965 10.5169 151.895 10.3867C151.824 10.2565 151.789 10.1042 151.789 9.92969C151.789 9.76302 151.826 9.60547 151.898 9.45703C151.974 9.30859 152.079 9.17708 152.215 9.0625C152.353 8.94792 152.518 8.85807 152.711 8.79297C152.904 8.72786 153.118 8.69531 153.355 8.69531C153.694 8.69531 153.983 8.75521 154.223 8.875C154.462 8.99479 154.646 9.15495 154.773 9.35547C154.901 9.55339 154.965 9.77344 154.965 10.0156H154.242C154.242 9.89844 154.207 9.78516 154.137 9.67578C154.069 9.5638 153.969 9.47135 153.836 9.39844C153.706 9.32552 153.546 9.28906 153.355 9.28906C153.155 9.28906 152.992 9.32031 152.867 9.38281C152.745 9.44271 152.655 9.51953 152.598 9.61328C152.543 9.70703 152.516 9.80599 152.516 9.91016C152.516 9.98828 152.529 10.0586 152.555 10.1211C152.583 10.181 152.633 10.237 152.703 10.2891C152.773 10.3385 152.872 10.3854 153 10.4297C153.128 10.474 153.29 10.5182 153.488 10.5625C153.835 10.6406 154.12 10.7344 154.344 10.8438C154.568 10.9531 154.734 11.0872 154.844 11.2461C154.953 11.4049 155.008 11.5977 155.008 11.8242C155.008 12.0091 154.969 12.1784 154.891 12.332C154.815 12.4857 154.704 12.6185 154.559 12.7305C154.415 12.8398 154.243 12.9258 154.043 12.9883C153.845 13.0482 153.622 13.0781 153.375 13.0781C153.003 13.0781 152.688 13.0117 152.43 12.8789C152.172 12.7461 151.977 12.5742 151.844 12.3633C151.711 12.1523 151.645 11.9297 151.645 11.6953H152.371C152.382 11.8932 152.439 12.0508 152.543 12.168C152.647 12.2826 152.775 12.3646 152.926 12.4141C153.077 12.4609 153.227 12.4844 153.375 12.4844C153.573 12.4844 153.738 12.4583 153.871 12.4062C154.007 12.3542 154.109 12.2826 154.18 12.1914C154.25 12.1003 154.285 11.9961 154.285 11.8789ZM157.711 13.0781C157.417 13.0781 157.15 13.0286 156.91 12.9297C156.673 12.8281 156.469 12.6862 156.297 12.5039C156.128 12.3216 155.997 12.1055 155.906 11.8555C155.815 11.6055 155.77 11.332 155.77 11.0352V10.8711C155.77 10.5273 155.82 10.2214 155.922 9.95312C156.023 9.68229 156.161 9.45312 156.336 9.26562C156.51 9.07812 156.708 8.9362 156.93 8.83984C157.151 8.74349 157.38 8.69531 157.617 8.69531C157.919 8.69531 158.18 8.7474 158.398 8.85156C158.62 8.95573 158.801 9.10156 158.941 9.28906C159.082 9.47396 159.186 9.69271 159.254 9.94531C159.322 10.1953 159.355 10.4688 159.355 10.7656V11.0898H156.199V10.5H158.633V10.4453C158.622 10.2578 158.583 10.0755 158.516 9.89844C158.451 9.72135 158.346 9.57552 158.203 9.46094C158.06 9.34635 157.865 9.28906 157.617 9.28906C157.453 9.28906 157.302 9.32422 157.164 9.39453C157.026 9.46224 156.908 9.5638 156.809 9.69922C156.71 9.83464 156.633 10 156.578 10.1953C156.523 10.3906 156.496 10.6159 156.496 10.8711V11.0352C156.496 11.2357 156.523 11.4245 156.578 11.6016C156.635 11.776 156.717 11.9297 156.824 12.0625C156.934 12.1953 157.065 12.2995 157.219 12.375C157.375 12.4505 157.552 12.4883 157.75 12.4883C158.005 12.4883 158.221 12.4362 158.398 12.332C158.576 12.2279 158.73 12.0885 158.863 11.9141L159.301 12.2617C159.21 12.3997 159.094 12.5312 158.953 12.6562C158.812 12.7812 158.639 12.8828 158.434 12.9609C158.23 13.0391 157.99 13.0781 157.711 13.0781ZM160.922 9.67578V13H160.199V8.77344H160.883L160.922 9.67578ZM160.75 10.7266L160.449 10.7148C160.452 10.4258 160.495 10.1589 160.578 9.91406C160.661 9.66667 160.779 9.45182 160.93 9.26953C161.081 9.08724 161.26 8.94661 161.469 8.84766C161.68 8.74609 161.913 8.69531 162.168 8.69531C162.376 8.69531 162.564 8.72396 162.73 8.78125C162.897 8.83594 163.039 8.92448 163.156 9.04688C163.276 9.16927 163.367 9.32812 163.43 9.52344C163.492 9.71615 163.523 9.95182 163.523 10.2305V13H162.797V10.2227C162.797 10.0013 162.764 9.82422 162.699 9.69141C162.634 9.55599 162.539 9.45833 162.414 9.39844C162.289 9.33594 162.135 9.30469 161.953 9.30469C161.773 9.30469 161.609 9.34245 161.461 9.41797C161.315 9.49349 161.189 9.59766 161.082 9.73047C160.978 9.86328 160.896 10.0156 160.836 10.1875C160.779 10.3568 160.75 10.5365 160.75 10.7266ZM166.391 8.77344V9.32812H164.105V8.77344H166.391ZM164.879 7.74609H165.602V11.9531C165.602 12.0964 165.624 12.2044 165.668 12.2773C165.712 12.3503 165.77 12.3984 165.84 12.4219C165.91 12.4453 165.986 12.457 166.066 12.457C166.126 12.457 166.189 12.4518 166.254 12.4414C166.322 12.4284 166.372 12.418 166.406 12.4102L166.41 13C166.353 13.0182 166.277 13.0352 166.184 13.0508C166.092 13.069 165.982 13.0781 165.852 13.0781C165.674 13.0781 165.512 13.043 165.363 12.9727C165.215 12.9023 165.096 12.7852 165.008 12.6211C164.922 12.4544 164.879 12.2305 164.879 11.9492V7.74609ZM169.195 10.7266V10.6875C169.195 10.1198 169.259 9.60677 169.387 9.14844C169.514 8.6875 169.677 8.28385 169.875 7.9375C170.073 7.59115 170.281 7.30469 170.5 7.07812C170.719 6.84896 170.921 6.68359 171.105 6.58203L171.258 7.05859C171.104 7.17578 170.948 7.33724 170.789 7.54297C170.633 7.7487 170.488 8.0013 170.355 8.30078C170.225 8.60026 170.12 8.94792 170.039 9.34375C169.958 9.73958 169.918 10.1849 169.918 10.6797V10.7344C169.918 11.2292 169.958 11.6758 170.039 12.0742C170.12 12.4701 170.225 12.819 170.355 13.1211C170.488 13.4232 170.633 13.6797 170.789 13.8906C170.948 14.1042 171.104 14.2734 171.258 14.3984L171.105 14.8359C170.921 14.7344 170.719 14.569 170.5 14.3398C170.281 14.1133 170.073 13.8268 169.875 13.4805C169.677 13.1367 169.514 12.7344 169.387 12.2734C169.259 11.8125 169.195 11.2969 169.195 10.7266ZM174.262 7.28125V13H173.539V8.18359L172.082 8.71484V8.0625L174.148 7.28125H174.262ZM180.23 11.0859V11.6797H176.121V11.2539L178.668 7.3125H179.258L178.625 8.45312L176.941 11.0859H180.23ZM179.438 7.3125V13H178.715V7.3125H179.438ZM183.668 9.61328V13H182.941V8.77344H183.629L183.668 9.61328ZM183.52 10.7266L183.184 10.7148C183.186 10.4258 183.224 10.1589 183.297 9.91406C183.37 9.66667 183.478 9.45182 183.621 9.26953C183.764 9.08724 183.943 8.94661 184.156 8.84766C184.37 8.74609 184.617 8.69531 184.898 8.69531C185.096 8.69531 185.279 8.72396 185.445 8.78125C185.612 8.83594 185.757 8.92318 185.879 9.04297C186.001 9.16276 186.096 9.31641 186.164 9.50391C186.232 9.69141 186.266 9.91797 186.266 10.1836V13H185.543V10.2188C185.543 9.9974 185.505 9.82031 185.43 9.6875C185.357 9.55469 185.253 9.45833 185.117 9.39844C184.982 9.33594 184.823 9.30469 184.641 9.30469C184.427 9.30469 184.249 9.34245 184.105 9.41797C183.962 9.49349 183.848 9.59766 183.762 9.73047C183.676 9.86328 183.613 10.0156 183.574 10.1875C183.538 10.3568 183.52 10.5365 183.52 10.7266ZM186.258 10.3281L185.773 10.4766C185.776 10.2448 185.814 10.0221 185.887 9.80859C185.962 9.59505 186.07 9.40495 186.211 9.23828C186.354 9.07161 186.53 8.9401 186.738 8.84375C186.947 8.74479 187.185 8.69531 187.453 8.69531C187.68 8.69531 187.88 8.72526 188.055 8.78516C188.232 8.84505 188.38 8.9375 188.5 9.0625C188.622 9.1849 188.715 9.34245 188.777 9.53516C188.84 9.72786 188.871 9.95703 188.871 10.2227V13H188.145V10.2148C188.145 9.97786 188.107 9.79427 188.031 9.66406C187.958 9.53125 187.854 9.4388 187.719 9.38672C187.586 9.33203 187.427 9.30469 187.242 9.30469C187.083 9.30469 186.943 9.33203 186.82 9.38672C186.698 9.44141 186.595 9.51693 186.512 9.61328C186.428 9.70703 186.365 9.8151 186.32 9.9375C186.279 10.0599 186.258 10.1901 186.258 10.3281ZM189.773 10.9336V10.8438C189.773 10.5391 189.818 10.2565 189.906 9.99609C189.995 9.73307 190.122 9.50521 190.289 9.3125C190.456 9.11719 190.658 8.96615 190.895 8.85938C191.132 8.75 191.397 8.69531 191.691 8.69531C191.988 8.69531 192.255 8.75 192.492 8.85938C192.732 8.96615 192.935 9.11719 193.102 9.3125C193.271 9.50521 193.4 9.73307 193.488 9.99609C193.577 10.2565 193.621 10.5391 193.621 10.8438V10.9336C193.621 11.2383 193.577 11.5208 193.488 11.7812C193.4 12.0417 193.271 12.2695 193.102 12.4648C192.935 12.6576 192.733 12.8086 192.496 12.918C192.262 13.0247 191.996 13.0781 191.699 13.0781C191.402 13.0781 191.135 13.0247 190.898 12.918C190.661 12.8086 190.458 12.6576 190.289 12.4648C190.122 12.2695 189.995 12.0417 189.906 11.7812C189.818 11.5208 189.773 11.2383 189.773 10.9336ZM190.496 10.8438V10.9336C190.496 11.1445 190.521 11.3438 190.57 11.5312C190.62 11.7161 190.694 11.8802 190.793 12.0234C190.895 12.1667 191.021 12.2799 191.172 12.3633C191.323 12.444 191.499 12.4844 191.699 12.4844C191.897 12.4844 192.07 12.444 192.219 12.3633C192.37 12.2799 192.495 12.1667 192.594 12.0234C192.693 11.8802 192.767 11.7161 192.816 11.5312C192.868 11.3438 192.895 11.1445 192.895 10.9336V10.8438C192.895 10.6354 192.868 10.4388 192.816 10.2539C192.767 10.0664 192.691 9.90104 192.59 9.75781C192.491 9.61198 192.366 9.4974 192.215 9.41406C192.066 9.33073 191.892 9.28906 191.691 9.28906C191.493 9.28906 191.319 9.33073 191.168 9.41406C191.02 9.4974 190.895 9.61198 190.793 9.75781C190.694 9.90104 190.62 10.0664 190.57 10.2539C190.521 10.4388 190.496 10.6354 190.496 10.8438ZM195.25 9.67578V13H194.527V8.77344H195.211L195.25 9.67578ZM195.078 10.7266L194.777 10.7148C194.78 10.4258 194.823 10.1589 194.906 9.91406C194.99 9.66667 195.107 9.45182 195.258 9.26953C195.409 9.08724 195.589 8.94661 195.797 8.84766C196.008 8.74609 196.241 8.69531 196.496 8.69531C196.704 8.69531 196.892 8.72396 197.059 8.78125C197.225 8.83594 197.367 8.92448 197.484 9.04688C197.604 9.16927 197.695 9.32812 197.758 9.52344C197.82 9.71615 197.852 9.95182 197.852 10.2305V13H197.125V10.2227C197.125 10.0013 197.092 9.82422 197.027 9.69141C196.962 9.55599 196.867 9.45833 196.742 9.39844C196.617 9.33594 196.464 9.30469 196.281 9.30469C196.102 9.30469 195.938 9.34245 195.789 9.41797C195.643 9.49349 195.517 9.59766 195.41 9.73047C195.306 9.86328 195.224 10.0156 195.164 10.1875C195.107 10.3568 195.078 10.5365 195.078 10.7266ZM200.719 8.77344V9.32812H198.434V8.77344H200.719ZM199.207 7.74609H199.93V11.9531C199.93 12.0964 199.952 12.2044 199.996 12.2773C200.04 12.3503 200.098 12.3984 200.168 12.4219C200.238 12.4453 200.314 12.457 200.395 12.457C200.454 12.457 200.517 12.4518 200.582 12.4414C200.65 12.4284 200.701 12.418 200.734 12.4102L200.738 13C200.681 13.0182 200.605 13.0352 200.512 13.0508C200.421 13.069 200.31 13.0781 200.18 13.0781C200.003 13.0781 199.84 13.043 199.691 12.9727C199.543 12.9023 199.424 12.7852 199.336 12.6211C199.25 12.4544 199.207 12.2305 199.207 11.9492V7.74609ZM202.289 7V13H201.566V7H202.289ZM202.117 10.7266L201.816 10.7148C201.819 10.4258 201.862 10.1589 201.945 9.91406C202.029 9.66667 202.146 9.45182 202.297 9.26953C202.448 9.08724 202.628 8.94661 202.836 8.84766C203.047 8.74609 203.28 8.69531 203.535 8.69531C203.743 8.69531 203.931 8.72396 204.098 8.78125C204.264 8.83594 204.406 8.92448 204.523 9.04688C204.643 9.16927 204.734 9.32812 204.797 9.52344C204.859 9.71615 204.891 9.95182 204.891 10.2305V13H204.164V10.2227C204.164 10.0013 204.132 9.82422 204.066 9.69141C204.001 9.55599 203.906 9.45833 203.781 9.39844C203.656 9.33594 203.503 9.30469 203.32 9.30469C203.141 9.30469 202.977 9.34245 202.828 9.41797C202.682 9.49349 202.556 9.59766 202.449 9.73047C202.345 9.86328 202.263 10.0156 202.203 10.1875C202.146 10.3568 202.117 10.5365 202.117 10.7266ZM208.434 11.8789C208.434 11.7747 208.41 11.6784 208.363 11.5898C208.319 11.4987 208.227 11.4167 208.086 11.3438C207.948 11.2682 207.74 11.2031 207.461 11.1484C207.227 11.099 207.014 11.0404 206.824 10.9727C206.637 10.9049 206.477 10.8229 206.344 10.7266C206.214 10.6302 206.113 10.5169 206.043 10.3867C205.973 10.2565 205.938 10.1042 205.938 9.92969C205.938 9.76302 205.974 9.60547 206.047 9.45703C206.122 9.30859 206.228 9.17708 206.363 9.0625C206.501 8.94792 206.667 8.85807 206.859 8.79297C207.052 8.72786 207.267 8.69531 207.504 8.69531C207.842 8.69531 208.132 8.75521 208.371 8.875C208.611 8.99479 208.794 9.15495 208.922 9.35547C209.049 9.55339 209.113 9.77344 209.113 10.0156H208.391C208.391 9.89844 208.355 9.78516 208.285 9.67578C208.217 9.5638 208.117 9.47135 207.984 9.39844C207.854 9.32552 207.694 9.28906 207.504 9.28906C207.303 9.28906 207.141 9.32031 207.016 9.38281C206.893 9.44271 206.803 9.51953 206.746 9.61328C206.691 9.70703 206.664 9.80599 206.664 9.91016C206.664 9.98828 206.677 10.0586 206.703 10.1211C206.732 10.181 206.781 10.237 206.852 10.2891C206.922 10.3385 207.021 10.3854 207.148 10.4297C207.276 10.474 207.439 10.5182 207.637 10.5625C207.983 10.6406 208.268 10.7344 208.492 10.8438C208.716 10.9531 208.883 11.0872 208.992 11.2461C209.102 11.4049 209.156 11.5977 209.156 11.8242C209.156 12.0091 209.117 12.1784 209.039 12.332C208.964 12.4857 208.853 12.6185 208.707 12.7305C208.564 12.8398 208.392 12.9258 208.191 12.9883C207.993 13.0482 207.771 13.0781 207.523 13.0781C207.151 13.0781 206.836 13.0117 206.578 12.8789C206.32 12.7461 206.125 12.5742 205.992 12.3633C205.859 12.1523 205.793 11.9297 205.793 11.6953H206.52C206.53 11.8932 206.587 12.0508 206.691 12.168C206.796 12.2826 206.923 12.3646 207.074 12.4141C207.225 12.4609 207.375 12.4844 207.523 12.4844C207.721 12.4844 207.887 12.4583 208.02 12.4062C208.155 12.3542 208.258 12.2826 208.328 12.1914C208.398 12.1003 208.434 11.9961 208.434 11.8789ZM211.77 10.6875V10.7266C211.77 11.2969 211.706 11.8125 211.578 12.2734C211.451 12.7344 211.288 13.1367 211.09 13.4805C210.892 13.8268 210.684 14.1133 210.465 14.3398C210.246 14.569 210.044 14.7344 209.859 14.8359L209.707 14.3984C209.861 14.2812 210.016 14.1172 210.172 13.9062C210.328 13.6979 210.473 13.4401 210.605 13.1328C210.738 12.8281 210.845 12.4766 210.926 12.0781C211.007 11.6771 211.047 11.2292 211.047 10.7344V10.6797C211.047 10.1849 211.004 9.73828 210.918 9.33984C210.832 8.9388 210.72 8.58594 210.582 8.28125C210.447 7.97656 210.301 7.72005 210.145 7.51172C209.991 7.30078 209.845 7.13802 209.707 7.02344L209.859 6.58203C210.044 6.68359 210.246 6.84896 210.465 7.07812C210.684 7.30469 210.892 7.59115 211.09 7.9375C211.288 8.28385 211.451 8.6875 211.578 9.14844C211.706 9.60677 211.77 10.1198 211.77 10.6875Z" fill="black"/>
<path d="M26.9336 5.46875H28.0117V11.4746C28.0117 12.1152 27.8887 12.6289 27.6426 13.0156C27.3965 13.4023 27.0723 13.6836 26.6699 13.8594C26.2715 14.0312 25.8418 14.1172 25.3809 14.1172C24.8887 14.1172 24.4453 14.0312 24.0508 13.8594C23.6562 13.6836 23.3418 13.4023 23.1074 13.0156C22.877 12.6289 22.7617 12.1152 22.7617 11.4746V5.46875H23.834V11.4746C23.834 11.9199 23.8965 12.2676 24.0215 12.5176C24.1504 12.7676 24.3301 12.9434 24.5605 13.0449C24.7949 13.1465 25.0684 13.1973 25.3809 13.1973C25.6973 13.1973 25.9707 13.1465 26.2012 13.0449C26.4355 12.9434 26.6152 12.7676 26.7402 12.5176C26.8691 12.2676 26.9336 11.9199 26.9336 11.4746V5.46875ZM30.4434 5.46875L32.0605 8.73828L33.666 5.46875H34.9199L32.6992 9.69336L34.9668 14H33.7012L32.0605 10.666L30.4141 14H29.1426L31.416 9.69336L29.1895 5.46875H30.4434ZM40.9668 14H39.5137L39.5254 13.0801H40.9668C41.4785 13.0801 41.8945 12.9824 42.2148 12.7871C42.5352 12.5879 42.7715 12.2949 42.9238 11.9082C43.0762 11.5176 43.1523 11.0352 43.1523 10.4609V9.00195C43.1523 8.54883 43.1094 8.1582 43.0234 7.83008C42.9375 7.50195 42.8086 7.23242 42.6367 7.02148C42.4648 6.81055 42.248 6.6543 41.9863 6.55273C41.7246 6.44727 41.418 6.39453 41.0664 6.39453H39.4844V5.46875H41.0664C41.5469 5.46875 41.9805 5.54492 42.3672 5.69727C42.7539 5.8457 43.0859 6.07031 43.3633 6.37109C43.6406 6.66797 43.8516 7.03711 43.9961 7.47852C44.1445 7.91992 44.2188 8.43164 44.2188 9.01367V10.4609C44.2188 11.043 44.1445 11.5547 43.9961 11.9961C43.8516 12.4375 43.6387 12.8066 43.3574 13.1035C43.0762 13.4004 42.7344 13.625 42.332 13.7773C41.9336 13.9258 41.4785 14 40.9668 14ZM40.1113 5.46875V14H39.0332V5.46875H40.1113ZM48.0156 14.1172C47.6367 14.1172 47.2949 14.0605 46.9902 13.9473C46.6855 13.834 46.4258 13.6621 46.2109 13.4316C45.9961 13.1973 45.832 12.9023 45.7188 12.5469C45.6055 12.1914 45.5488 11.7715 45.5488 11.2871V10.5723C45.5488 10.0137 45.6133 9.54102 45.7422 9.1543C45.875 8.76758 46.0527 8.45703 46.2754 8.22266C46.498 7.98438 46.75 7.8125 47.0312 7.70703C47.3125 7.59766 47.6016 7.54297 47.8984 7.54297C48.2969 7.54297 48.6367 7.60742 48.918 7.73633C49.1992 7.86523 49.4277 8.05664 49.6035 8.31055C49.7793 8.56445 49.9082 8.87695 49.9902 9.24805C50.0762 9.61914 50.1191 10.0469 50.1191 10.5312V11.1348H46.1582V10.25H49.082V10.1035C49.0664 9.77539 49.0215 9.48633 48.9473 9.23633C48.877 8.98633 48.7598 8.79102 48.5957 8.65039C48.4316 8.50586 48.1992 8.43359 47.8984 8.43359C47.707 8.43359 47.5293 8.4668 47.3652 8.5332C47.2051 8.5957 47.0664 8.70703 46.9492 8.86719C46.8359 9.02344 46.7461 9.24023 46.6797 9.51758C46.6172 9.79492 46.5859 10.1465 46.5859 10.5723V11.2871C46.5859 11.627 46.6172 11.9199 46.6797 12.166C46.7461 12.4082 46.8418 12.6094 46.9668 12.7695C47.0957 12.9258 47.252 13.043 47.4355 13.1211C47.623 13.1953 47.8359 13.2324 48.0742 13.2324C48.4219 13.2324 48.709 13.166 48.9355 13.0332C49.1621 12.8965 49.3594 12.7227 49.5273 12.5117L50.0723 13.1621C49.959 13.3223 49.8105 13.4766 49.627 13.625C49.4473 13.7695 49.2246 13.8887 48.959 13.9824C48.6973 14.0723 48.3828 14.1172 48.0156 14.1172ZM54.4492 12.377C54.4492 12.2168 54.4102 12.0762 54.332 11.9551C54.2539 11.834 54.125 11.7168 53.9453 11.6035C53.7695 11.4902 53.5312 11.3691 53.2305 11.2402C52.9375 11.1191 52.6738 11 52.4395 10.8828C52.209 10.7617 52.0137 10.6309 51.8535 10.4902C51.6934 10.3496 51.5703 10.1875 51.4844 10.0039C51.4023 9.81641 51.3613 9.5957 51.3613 9.3418C51.3613 9.08789 51.4082 8.85352 51.502 8.63867C51.5996 8.41992 51.7363 8.22852 51.9121 8.06445C52.0879 7.90039 52.2988 7.77344 52.5449 7.68359C52.791 7.58984 53.0664 7.54297 53.3711 7.54297C53.8047 7.54297 54.1738 7.62695 54.4785 7.79492C54.7832 7.96289 55.0156 8.19336 55.1758 8.48633C55.3398 8.77539 55.4219 9.10156 55.4219 9.46484H54.3906C54.3906 9.28906 54.3516 9.12305 54.2734 8.9668C54.1953 8.81055 54.0801 8.68359 53.9277 8.58594C53.7754 8.48438 53.5898 8.43359 53.3711 8.43359C53.1406 8.43359 52.9531 8.47461 52.8086 8.55664C52.6641 8.63867 52.5586 8.74609 52.4922 8.87891C52.4297 9.00781 52.3984 9.15039 52.3984 9.30664C52.3984 9.42383 52.4141 9.52539 52.4453 9.61133C52.4805 9.69336 52.5391 9.77148 52.6211 9.8457C52.7031 9.91602 52.8145 9.99023 52.9551 10.0684C53.0996 10.1426 53.2832 10.2285 53.5059 10.3262C53.9355 10.4941 54.2969 10.6641 54.5898 10.8359C54.8828 11.0078 55.1055 11.209 55.2578 11.4395C55.4102 11.6699 55.4863 11.9551 55.4863 12.2949C55.4863 12.5723 55.4355 12.8242 55.334 13.0508C55.2363 13.2734 55.0957 13.4648 54.9121 13.625C54.7285 13.7852 54.5078 13.9082 54.25 13.9941C53.9961 14.0762 53.7109 14.1172 53.3945 14.1172C52.918 14.1172 52.5137 14.0234 52.1816 13.8359C51.8535 13.6445 51.6035 13.3965 51.4316 13.0918C51.2637 12.7832 51.1797 12.4531 51.1797 12.1016H52.2168C52.2285 12.3984 52.2949 12.6289 52.416 12.793C52.541 12.957 52.6914 13.0703 52.8672 13.1328C53.043 13.1953 53.2188 13.2266 53.3945 13.2266C53.625 13.2266 53.8184 13.1934 53.9746 13.127C54.1309 13.0566 54.248 12.957 54.3262 12.8281C54.4082 12.6992 54.4492 12.5488 54.4492 12.377ZM57.959 7.66016V14H56.9277V7.66016H57.959ZM56.8691 5.97852C56.8691 5.80273 56.918 5.6543 57.0156 5.5332C57.1133 5.41211 57.2598 5.35156 57.4551 5.35156C57.6504 5.35156 57.7969 5.41211 57.8945 5.5332C57.9961 5.6543 58.0469 5.80273 58.0469 5.97852C58.0469 6.14648 57.9961 6.29102 57.8945 6.41211C57.7969 6.5293 57.6504 6.58789 57.4551 6.58789C57.2598 6.58789 57.1133 6.5293 57.0156 6.41211C56.918 6.29102 56.8691 6.14648 56.8691 5.97852ZM63.0332 7.66016H63.9648V14.0527C63.9648 14.6113 63.8672 15.0723 63.6719 15.4355C63.4805 15.7988 63.2129 16.0664 62.8691 16.2383C62.5254 16.4141 62.1289 16.502 61.6797 16.502C61.5195 16.502 61.3184 16.4727 61.0762 16.4141C60.834 16.3555 60.5918 16.2656 60.3496 16.1445C60.1074 16.0273 59.9082 15.8789 59.752 15.6992L60.1797 14.9785C60.4023 15.2051 60.6387 15.3672 60.8887 15.4648C61.1387 15.5625 61.377 15.6113 61.6035 15.6113C61.873 15.6113 62.1074 15.5625 62.3066 15.4648C62.5059 15.3672 62.6602 15.207 62.7695 14.9844C62.8789 14.7656 62.9336 14.4727 62.9336 14.1055V9.05469L63.0332 7.66016ZM59.3887 11.1348V10.543C59.3887 10.0195 59.4375 9.57031 59.5352 9.19531C59.6328 8.81641 59.7734 8.50586 59.957 8.26367C60.1445 8.01758 60.3691 7.83594 60.6309 7.71875C60.8926 7.60156 61.1855 7.54297 61.5098 7.54297C61.8379 7.54297 62.1211 7.60938 62.3594 7.74219C62.5977 7.875 62.7949 8.06836 62.9512 8.32227C63.1113 8.57227 63.2363 8.87695 63.3262 9.23633C63.4199 9.5918 63.4844 9.99414 63.5195 10.4434V11.2344C63.4844 11.6797 63.4199 12.0801 63.3262 12.4355C63.2363 12.791 63.1094 13.0938 62.9453 13.3438C62.7852 13.5938 62.5859 13.7852 62.3477 13.918C62.1094 14.0508 61.8262 14.1172 61.498 14.1172C61.1777 14.1172 60.8887 14.0566 60.6309 13.9355C60.373 13.8105 60.1504 13.625 59.9629 13.3789C59.7793 13.1289 59.6367 12.8184 59.5352 12.4473C59.4375 12.0723 59.3887 11.6348 59.3887 11.1348ZM60.4258 10.543V11.1348C60.4258 11.4863 60.4512 11.793 60.502 12.0547C60.5527 12.3125 60.6309 12.5273 60.7363 12.6992C60.8457 12.8672 60.9844 12.9922 61.1523 13.0742C61.3242 13.1562 61.5293 13.1973 61.7676 13.1973C62.0566 13.1973 62.293 13.127 62.4766 12.9863C62.6602 12.8457 62.8066 12.6602 62.916 12.4297C63.0293 12.1953 63.1191 11.9434 63.1855 11.6738V10.0098C63.1465 9.81055 63.0898 9.61914 63.0156 9.43555C62.9453 9.24805 62.8535 9.08203 62.7402 8.9375C62.627 8.78906 62.4902 8.67188 62.3301 8.58594C62.1738 8.5 61.9902 8.45703 61.7793 8.45703C61.541 8.45703 61.3359 8.5 61.1641 8.58594C60.9922 8.67188 60.8516 8.80078 60.7422 8.97266C60.6328 9.14453 60.5527 9.36133 60.502 9.62305C60.4512 9.88477 60.4258 10.1914 60.4258 10.543ZM66.5547 9.01367V14H65.5176V7.66016H66.4961L66.5547 9.01367ZM66.3027 10.5898L65.8809 10.5723C65.877 10.1387 65.9258 9.73828 66.0273 9.37109C66.1328 9 66.2812 8.67773 66.4727 8.4043C66.668 8.13086 66.9004 7.91992 67.1699 7.77148C67.4395 7.61914 67.7383 7.54297 68.0664 7.54297C68.3242 7.54297 68.5586 7.58594 68.7695 7.67188C68.9805 7.75391 69.1602 7.88672 69.3086 8.07031C69.457 8.25391 69.5703 8.49219 69.6484 8.78516C69.7305 9.07422 69.7715 9.42773 69.7715 9.8457V14H68.7344V9.83398C68.7344 9.50195 68.6973 9.23633 68.623 9.03711C68.5527 8.83398 68.4434 8.6875 68.2949 8.59766C68.1504 8.50391 67.9668 8.45703 67.7441 8.45703C67.541 8.45703 67.3516 8.51367 67.1758 8.62695C67 8.74023 66.8457 8.89648 66.7129 9.0957C66.584 9.29492 66.4824 9.52344 66.4082 9.78125C66.3379 10.0352 66.3027 10.3047 66.3027 10.5898ZM73.5977 14.1172C73.2188 14.1172 72.877 14.0605 72.5723 13.9473C72.2676 13.834 72.0078 13.6621 71.793 13.4316C71.5781 13.1973 71.4141 12.9023 71.3008 12.5469C71.1875 12.1914 71.1309 11.7715 71.1309 11.2871V10.5723C71.1309 10.0137 71.1953 9.54102 71.3242 9.1543C71.457 8.76758 71.6348 8.45703 71.8574 8.22266C72.0801 7.98438 72.332 7.8125 72.6133 7.70703C72.8945 7.59766 73.1836 7.54297 73.4805 7.54297C73.8789 7.54297 74.2188 7.60742 74.5 7.73633C74.7812 7.86523 75.0098 8.05664 75.1855 8.31055C75.3613 8.56445 75.4902 8.87695 75.5723 9.24805C75.6582 9.61914 75.7012 10.0469 75.7012 10.5312V11.1348H71.7402V10.25H74.6641V10.1035C74.6484 9.77539 74.6035 9.48633 74.5293 9.23633C74.459 8.98633 74.3418 8.79102 74.1777 8.65039C74.0137 8.50586 73.7812 8.43359 73.4805 8.43359C73.2891 8.43359 73.1113 8.4668 72.9473 8.5332C72.7871 8.5957 72.6484 8.70703 72.5312 8.86719C72.418 9.02344 72.3281 9.24023 72.2617 9.51758C72.1992 9.79492 72.168 10.1465 72.168 10.5723V11.2871C72.168 11.627 72.1992 11.9199 72.2617 12.166C72.3281 12.4082 72.4238 12.6094 72.5488 12.7695C72.6777 12.9258 72.834 13.043 73.0176 13.1211C73.2051 13.1953 73.418 13.2324 73.6562 13.2324C74.0039 13.2324 74.291 13.166 74.5176 13.0332C74.7441 12.8965 74.9414 12.7227 75.1094 12.5117L75.6543 13.1621C75.541 13.3223 75.3926 13.4766 75.209 13.625C75.0293 13.7695 74.8066 13.8887 74.541 13.9824C74.2793 14.0723 73.9648 14.1172 73.5977 14.1172ZM77.9922 8.65625V14H76.9551V7.66016H77.957L77.9922 8.65625ZM79.5684 7.625L79.5742 8.63281C79.4883 8.61328 79.4102 8.60156 79.3398 8.59766C79.2734 8.58984 79.1953 8.58594 79.1055 8.58594C78.9102 8.58594 78.7383 8.625 78.5898 8.70312C78.4453 8.78125 78.3203 8.89062 78.2148 9.03125C78.1094 9.17188 78.0254 9.33984 77.9629 9.53516C77.9004 9.72656 77.8574 9.9375 77.834 10.168L77.5645 10.3438C77.5645 9.96094 77.5938 9.60156 77.6523 9.26562C77.7148 8.92969 77.8105 8.63281 77.9395 8.375C78.0684 8.11328 78.2324 7.91016 78.4316 7.76562C78.6348 7.61719 78.877 7.54297 79.1582 7.54297C79.2207 7.54297 79.2969 7.55273 79.3867 7.57227C79.4805 7.58789 79.541 7.60547 79.5684 7.625Z" fill="black"/>
<defs>
<filter id="filter0_b_240_4" x="-4" y="-3.98422" width="262" height="26.9684" filterUnits="userSpaceOnUse" color-interpolation-filters="sRGB">
<feFlood flood-opacity="0" result="BackgroundImageFix"/>
<feGaussianBlur in="BackgroundImage" stdDeviation="2"/>
<feComposite in2="SourceAlpha" operator="in" result="effect1_backgroundBlur_240_4"/>
<feBlend mode="normal" in="SourceGraphic" in2="effect1_backgroundBlur_240_4" result="shape"/>
</filter>
</defs>
</svg>
